<svg width="540" height="540" viewBox="0 0 540 540" fill="none" xmlns="http://www.w3.org/2000/svg">
<circle cx="270" cy="270" r="270" fill="#F9F9F9"/>
<circle cx="271" cy="270" r="251" fill="black" stroke="black" stroke-width="2"/>
<mask id="mask0_11_2" style="mask-type:alpha" maskUnits="userSpaceOnUse" x="21" y="20" width="500" height="500">
<circle cx="271" cy="270" r="249" fill="black" stroke="black" stroke-width="2"/>
</mask>
<g mask="url(#mask0_11_2)">
<rect x="20" y="20" width="500" height="500" fill="#07D2FF"/>
<path d="M281.012 177.735L264.209 131.843C264.209 131.843 272.012 98.7466 303.266 99.2115C334.52 99.6765 349.159 122.164 349.159 122.164C349.159 122.164 348.128 148.45 329.571 166.667C311.014 184.885 281.012 177.735 281.012 177.735Z" fill="#FFB801" stroke="black" stroke-width="2"/>
<path d="M263.066 221.181L284.021 177.029C284.021 177.029 313.097 159.398 334.671 182.015C356.245 204.633 350.467 230.836 350.467 230.836C350.467 230.836 330.996 248.524 304.996 248.058C278.995 247.591 263.066 221.181 263.066 221.181Z" fill="#FFB801" stroke="black" stroke-width="2"/>
<path d="M224.72 246.684L264.204 217.882C264.204 217.882 298.169 216.26 306.336 246.431C314.504 276.602 296.923 296.873 296.923 296.873C296.923 296.873 271.372 303.128 248.745 290.311C226.117 277.494 224.72 246.684 224.72 246.684Z" fill="#FFB801" stroke="black" stroke-width="2"/>
<path d="M185.44 235.934L234.262 233.709C234.262 233.709 263.48 251.103 253.638 280.771C243.796 310.438 217.948 317.638 217.948 317.638C217.948 317.638 193.188 308.75 181.394 285.574C169.6 262.398 185.44 235.934 185.44 235.934Z" fill="#FFB801" stroke="black" stroke-width="2"/>
<path d="M158.583 163.811L161.234 212.612C161.234 212.612 144.095 241.98 114.343 232.398C84.591 222.815 77.1656 197.03 77.1656 197.03C77.1656 197.03 85.8368 172.195 108.909 160.198C131.982 148.202 158.583 163.811 158.583 163.811Z" fill="#FFB801" stroke="black" stroke-width="2"/>
<path d="M174.021 128.373L144.006 166.943C144.006 166.943 111.804 177.863 95.6362 151.112C79.4686 124.361 90.7811 100.03 90.7811 100.03C90.7811 100.03 113.619 86.9748 138.902 93.0581C164.186 99.1413 174.021 128.373 174.021 128.373Z" fill="#FFB801" stroke="black" stroke-width="2"/>
<path d="M222.5 115L175 126.5C175 126.5 143 115 147 84C151 53 175 41 175 41C175 41 201 45 217 65.5C233 86 222.5 115 222.5 115Z" fill="#FFB801" stroke="black" stroke-width="2"/>
<path d="M154.915 215.9L185.744 253.822C185.744 253.822 189.14 287.656 159.438 297.391C129.736 307.127 108.572 290.631 108.572 290.631C108.572 290.631 100.99 265.442 112.604 242.175C124.219 218.908 154.915 215.9 154.915 215.9Z" fill="#FFB801" stroke="black" stroke-width="2"/>
<path d="M263.003 135.733L223.409 107.082C223.409 107.082 211.372 75.2807 237.542 58.1894C263.712 41.0981 288.424 51.5545 288.424 51.5545C288.424 51.5545 302.268 73.9228 297.071 99.403C291.874 124.883 263.003 135.733 263.003 135.733Z" fill="#FFB801" stroke="black" stroke-width="2"/>
<rect x="207.123" y="166.42" width="260" height="18" transform="rotate(53 207.123 166.42)" fill="#07AF2C" stroke="black" stroke-width="2"/>
<circle cx="212.447" cy="183.501" r="79" transform="rotate(-15 212.447 183.501)" fill="#FFE600" stroke="black" stroke-width="2"/>
<line x1="111.804" y1="310.022" x2="216.285" y2="176.292" stroke="black" stroke-width="2"/>
<rect x="322.267" y="363.002" width="168.251" height="17.2081" transform="rotate(-52 322.267 363.002)" fill="#02CD16" stroke="black" stroke-width="2"/>
<path d="M442.284 246.277L442.842 266.824C442.842 266.824 438.493 291.751 413.321 277.481C388.15 263.211 407.524 246.783 407.524 246.783L424.557 235.552L442.284 246.277Z" fill="#E2717C" stroke="black" stroke-width="2"/>
<path d="M456.996 238.752L471.796 253.016C471.796 253.016 486.166 273.843 458.21 281.308C430.254 288.773 432.558 263.476 432.558 263.476L436.836 243.527L456.996 238.752Z" fill="#E2717C" stroke="black" stroke-width="2"/>
<path d="M466.57 229.069L487.015 231.197C487.015 231.197 511.16 238.762 493.727 261.856C476.293 284.95 462.535 263.597 462.535 263.597L453.624 245.244L466.57 229.069Z" fill="#E2717C" stroke="black" stroke-width="2"/>
<path d="M471.597 204.905L490.51 196.855C490.51 196.855 515.296 191.765 511.244 220.416C507.192 249.066 484.807 237.06 484.807 237.06L468.115 225.328L471.597 204.905Z" fill="#E2717C" stroke="black" stroke-width="2"/>
<path d="M460.551 192.013L470.499 174.025C470.499 174.025 486.897 154.755 501.343 179.826C515.789 204.897 490.757 209.219 490.757 209.219L470.381 210.25L460.551 192.013Z" fill="#E2717C" stroke="black" stroke-width="2"/>
<path d="M425.509 240.149L413.735 256.998C413.735 256.998 395.413 274.449 383.666 248.005C371.92 221.562 397.266 219.88 397.266 219.88L417.638 220.984L425.509 240.149Z" fill="#E2717C" stroke="black" stroke-width="2"/>
<path d="M412.92 222.248L392.621 225.483C392.621 225.483 367.34 224.425 378.203 197.606C389.065 170.787 407.882 187.852 407.882 187.852L421.239 203.273L412.92 222.248Z" fill="#E2717C" stroke="black" stroke-width="2"/>
<path d="M420.438 199.21L403.387 187.732C403.387 187.732 385.619 169.717 411.853 157.511C438.088 145.305 440.212 170.618 440.212 170.618L439.463 191.006L420.438 199.21Z" fill="#E2717C" stroke="black" stroke-width="2"/>
<path d="M441.931 184.946L435.051 165.577C435.051 165.577 431.484 140.526 459.833 146.32C488.183 152.113 474.833 173.724 474.833 173.724L462.104 189.668L441.931 184.946Z" fill="#E2717C" stroke="black" stroke-width="2"/>
<circle cx="442.139" cy="225.483" r="44" transform="rotate(-15 442.139 225.483)" fill="#F96B1C" stroke="black" stroke-width="2"/>
<circle cx="339.553" cy="356.499" r="79" transform="rotate(-15 339.553 356.499)" fill="#7B432B" stroke="black" stroke-width="2"/>
<rect x="261" y="277" width="162" height="34" fill="#572C2C" stroke="black" stroke-width="2"/>
<path d="M97.9237 282.159C97.9237 282.159 99.7805 255.275 85.1699 239.407C70.5592 223.54 45.0676 226.407 30.0272 243.991C14.9868 261.574 16.8436 294.73 35.7515 305.881C54.6594 317.031 81.5942 311.75 81.5942 311.75L97.9237 282.159Z" fill="#D8F6FD" stroke="black" stroke-width="2"/>
<path d="M147.419 312.841C147.419 312.841 171.44 300.628 191.755 307.877C212.071 315.126 219.391 339.712 209.083 360.427C198.774 381.142 167.528 392.388 149.876 379.34C132.224 366.292 126.56 339.435 126.56 339.435L147.419 312.841Z" fill="#D8F6FD" stroke="black" stroke-width="2"/>
<mask id="mask1_11_2" style="mask-type:alpha" maskUnits="userSpaceOnUse" x="64" y="269" width="91" height="91">
<circle cx="109.861" cy="314.517" r="44" transform="rotate(-15 109.861 314.517)" fill="#FEFEFE" stroke="black" stroke-width="2"/>
</mask>
<g mask="url(#mask1_11_2)">
<rect x="101.973" y="252.402" width="88" height="20" transform="rotate(37.5 101.973 252.402)" fill="#EAC848" stroke="black" stroke-width="2"/>
<rect x="88.5804" y="269.856" width="88" height="21" transform="rotate(37.5 88.5804 269.856)" fill="#443D24" stroke="black" stroke-width="2"/>
<rect x="74.5789" y="288.103" width="88" height="20" transform="rotate(37.5 74.5789 288.103)" fill="#EAC848" stroke="black" stroke-width="2"/>
<rect x="61.1861" y="305.557" width="88" height="21" transform="rotate(37.5 61.1861 305.557)" fill="#443D24" stroke="black" stroke-width="2"/>
<circle cx="109.861" cy="314.517" r="44" transform="rotate(-15 109.861 314.517)" stroke="black" stroke-width="2"/>
</g>
<path d="M166 267.518C166 267.518 188.35 253.28 197.212 260.677C206.074 268.073 201.133 278.928 201.133 278.928" stroke="black" stroke-width="2"/>
<path d="M138 247C138 247 138 220.5 127 217C116 213.5 109.5 223.5 109.5 223.5" stroke="black" stroke-width="2"/>
<circle cx="141.5" cy="272.5" r="25.5" fill="#EAC848" stroke="black" stroke-width="2"/>
<circle cx="136.5" cy="262.5" r="2.5" fill="black"/>
<circle cx="151.5" cy="272.5" r="2.5" fill="black"/>
<path d="M156.492 414.96C167.239 419.886 193.755 445.692 242.873 524H419.307C419.307 524 441.731 502.27 452.352 496.552C462.974 490.833 509 487.402 509 487.402C509 487.402 469.464 458.81 455.893 450.805C442.321 442.799 403.375 432.506 403.375 432.506C403.375 432.506 406.326 410.776 409.866 397.052C413.407 383.328 423.438 360.454 423.438 360.454C423.438 360.454 399.245 377.609 389.213 392.477C379.182 407.345 367.97 432.506 367.97 432.506C367.97 432.506 365.61 417.638 367.97 389.046C370.331 360.454 382.132 325 382.132 325C382.132 325 349.088 365.029 339.646 384.471C330.205 403.914 317.813 432.506 317.813 432.506C317.813 432.506 302.471 401.626 296.57 389.046C290.669 376.466 274.737 360.454 274.737 360.454C274.737 360.454 281.818 385.615 284.179 397.052C286.539 408.488 291.26 432.506 291.26 432.506C291.26 432.506 274.737 405.057 266.476 397.052C258.215 389.046 234.612 368.46 234.612 368.46C234.612 368.46 244.053 379.897 251.134 397.052C258.215 414.207 264.116 432.506 264.116 432.506C264.116 432.506 230.481 397.052 213.369 389.046C196.256 381.04 167.342 368.46 167.342 368.46L191.536 397.052L213.369 424.5C213.369 424.5 191.536 414.96 184.455 414.207C177.374 413.454 172.653 414.207 156.492 414.96Z" fill="#71FF2F"/>
<path d="M156.492 414.96C167.239 419.886 193.755 445.692 242.873 524H419.307C419.307 524 441.731 502.27 452.352 496.552C462.974 490.833 509 487.402 509 487.402C509 487.402 469.464 458.81 455.893 450.805C442.321 442.799 403.375 432.506 403.375 432.506C403.375 432.506 406.326 410.776 409.866 397.052C413.407 383.328 423.438 360.454 423.438 360.454C423.438 360.454 399.245 377.609 389.213 392.477C379.182 407.345 367.97 432.506 367.97 432.506C367.97 432.506 365.61 417.638 367.97 389.046C370.331 360.454 382.132 325 382.132 325C382.132 325 349.088 365.029 339.646 384.471C330.205 403.914 317.813 432.506 317.813 432.506C317.813 432.506 302.471 401.626 296.57 389.046C290.669 376.466 274.737 360.454 274.737 360.454C274.737 360.454 281.818 385.615 284.179 397.052C286.539 408.488 291.26 432.506 291.26 432.506C291.26 432.506 274.737 405.057 266.476 397.052C258.215 389.046 234.612 368.46 234.612 368.46C234.612 368.46 244.053 379.897 251.134 397.052C258.215 414.207 264.116 432.506 264.116 432.506C264.116 432.506 230.481 397.052 213.369 389.046C196.256 381.04 167.342 368.46 167.342 368.46L191.536 397.052L213.369 424.5C213.369 424.5 191.536 414.96 184.455 414.207C177.374 413.454 172.653 414.207 156.492 414.96ZM156.492 414.96L152 414.207C152.949 413.839 154.431 414.016 156.492 414.96Z" stroke="black" stroke-width="2"/>
<path d="M21.2321 522.883C21.2321 522.883 4.99458 475.506 -9.21324 446.831C-23.4211 418.156 -63 389.481 -63 389.481L31.3805 446.831C31.3805 446.831 36.4548 460.545 15.143 405.688C-6.16871 350.831 -31.5398 312.182 -31.5398 312.182C-31.5398 312.182 18.1876 333.377 31.3805 355.818C44.5735 378.26 78.0634 426.883 78.0634 426.883C78.0634 426.883 67.4075 389.481 68.9298 370.779C70.4521 352.078 71.9743 345.844 78.0634 328.39C84.1525 310.935 91.2564 286 91.2564 286C91.2564 286 85.6747 370.779 91.2564 389.481C96.838 408.182 101.405 426.883 101.405 426.883C101.405 426.883 108.509 405.688 129.82 389.481C151.132 373.273 176.503 370.779 176.503 370.779C176.503 370.779 164.833 412.545 159.251 426.883C153.669 441.221 137.939 481.74 137.939 481.74C137.939 481.74 155.699 468.026 163.818 461.169C171.937 454.312 197.815 446.831 197.815 446.831C197.815 446.831 187.667 475.506 182.085 487.974C176.503 500.442 159.251 522.883 159.251 522.883H21.2321Z" fill="#31F05B" stroke="black" stroke-width="2"/>
<path d="M95 523C95 523 100.821 463.101 120.031 427.291C139.242 391.482 184.065 342 184.065 342C184.065 342 171.258 395.388 170.676 421.432C170.094 447.475 184.065 470.914 184.065 470.914C184.065 470.914 187.558 459.845 195.126 447.475C202.693 435.104 217.246 421.432 217.246 421.432C217.246 421.432 225.396 435.104 228.307 447.475C231.217 459.845 231.217 470.914 231.217 470.914C231.217 470.914 240.531 439.662 245.188 421.432C249.845 403.201 245.188 349.162 245.188 349.162C245.188 349.162 268.473 390.18 273.13 405.806C277.787 421.432 288.848 470.914 288.848 470.914C288.848 470.914 294.669 447.475 303.983 432.5C313.297 417.525 336 396.691 336 396.691C336 396.691 327.85 437.058 324.94 459.845C322.029 482.633 319.7 523 319.7 523H95Z" fill="#4CC403" stroke="black" stroke-width="2"/>
<path d="M423.115 351.39C420.388 371.612 392.728 456.483 412.596 522.883H524.796C524.796 522.883 533.367 496.132 543.106 488.489C552.846 480.846 577 465.559 577 465.559C577 465.559 558.69 459.827 537.263 462.693C515.836 465.559 506.096 477.024 506.096 477.024C506.096 477.024 506.096 454.095 515.836 440.241C525.575 426.388 550.898 400.115 550.898 400.115C550.898 400.115 520.121 401.548 498.304 414.923C476.488 428.299 471.423 445.018 471.423 445.018C471.423 445.018 471.423 434.987 476.488 405.847C481.552 376.708 487.006 354.734 487.006 354.734C487.006 354.734 462.463 384.828 455.061 405.847C447.659 426.866 444.932 454.095 444.932 454.095C444.932 454.095 434.023 428.299 429.348 402.981C424.673 377.663 423.115 351.39 423.115 351.39Z" fill="#09CF7C" stroke="black" stroke-width="2"/>
</g>
</svg>
